<svg width="607" height="455" viewBox="0 0 607 455" fill="none" xmlns="http://www.w3.org/2000/svg">
<g clip-path="url(#clip0_5812_75419)">
<g filter="url(#filter0_dd_5812_75419)">
<rect x="189.644" y="10.209" width="228" height="433.86" rx="22" fill="white"/>
<rect x="189.644" y="10.209" width="228" height="433.86" rx="22" fill="url(#paint0_linear_5812_75419)" fill-opacity="0.1"/>
<rect x="189.644" y="10.209" width="228" height="433.86" rx="22" fill="url(#paint1_linear_5812_75419)"/>
</g>
<g style="mix-blend-mode:multiply">
<path fill-rule="evenodd" clip-rule="evenodd" d="M282.693 404.834C282.693 413.283 275.844 420.132 267.395 420.132C258.946 420.132 252.097 413.283 252.097 404.834C252.097 396.385 258.946 389.536 267.395 389.536C275.844 389.536 282.693 396.385 282.693 404.834ZM244.796 404.834C244.796 413.283 237.947 420.132 229.498 420.132C221.049 420.132 214.2 413.283 214.2 404.834C214.2 396.385 221.049 389.536 229.498 389.536C237.947 389.536 244.796 396.385 244.796 404.834ZM306.683 420.132C315.132 420.132 321.981 413.283 321.981 404.834C321.981 396.385 315.132 389.536 306.683 389.536C298.235 389.536 291.385 396.385 291.385 404.834C291.385 413.283 298.235 420.132 306.683 420.132Z" fill="#DADADA" fill-opacity="0.6"/>
</g>
<rect x="189.644" y="86.209" width="228" height="279.86" fill="white"/>
<rect x="189.644" y="86.209" width="228" height="279.86" fill="url(#paint2_linear_5812_75419)" fill-opacity="0.6"/>
<path fill-rule="evenodd" clip-rule="evenodd" d="M228.059 31.2051C223.581 31.2051 223.02 31.2257 221.262 31.304C219.506 31.3864 218.311 31.6626 217.26 32.0707C216.176 32.4911 215.255 33.0558 214.34 33.9729C213.423 34.888 212.856 35.8072 212.437 36.8933C212.029 37.9444 211.751 39.1397 211.671 40.8956C211.588 42.6536 211.572 43.2142 211.572 47.6926C211.572 52.171 211.592 52.7316 211.671 54.4896C211.753 56.2455 212.029 57.4429 212.437 58.492C212.858 59.576 213.423 60.4972 214.34 61.4123C215.255 62.3294 216.174 62.8962 217.26 63.3146C218.311 63.7226 219.506 64.0009 221.262 64.0812C223.02 64.1637 223.581 64.1802 228.059 64.1802C232.538 64.1802 233.098 64.1595 234.856 64.0812C236.612 63.9988 237.81 63.7226 238.859 63.3146C239.943 62.8941 240.864 62.3294 241.779 61.4123C242.696 60.4972 243.263 59.5781 243.681 58.492C244.089 57.4409 244.368 56.2455 244.448 54.4896C244.53 52.7316 244.547 52.171 244.547 47.6926C244.547 43.2142 244.526 42.6536 244.448 40.8956C244.365 39.1397 244.089 37.9423 243.681 36.8933C243.261 35.8092 242.696 34.888 241.779 33.9729C240.864 33.0558 239.945 32.489 238.859 32.0707C237.808 31.6626 236.612 31.3844 234.856 31.304C233.098 31.2216 232.538 31.2051 228.059 31.2051ZM228.059 34.1728C232.462 34.1728 232.985 34.1934 234.722 34.2717C236.33 34.3459 237.202 34.6138 237.783 34.8405C238.554 35.1394 239.102 35.4959 239.679 36.073C240.256 36.65 240.613 37.1982 240.911 37.969C241.138 38.5502 241.406 39.422 241.48 41.0295C241.559 42.769 241.577 43.2904 241.577 47.6926C241.577 52.0947 241.556 52.6182 241.474 54.3556C241.392 55.9631 241.124 56.8349 240.897 57.4161C240.588 58.1869 240.237 58.7351 239.66 59.3121C239.083 59.8892 238.527 60.2458 237.764 60.5446C237.187 60.7713 236.301 61.0392 234.694 61.1134C232.942 61.1917 232.427 61.2103 228.016 61.2103C223.606 61.2103 223.09 61.1897 221.339 61.1072C219.731 61.0248 218.845 60.7569 218.268 60.5302C217.485 60.221 216.949 59.8707 216.372 59.2936C215.795 58.7165 215.424 58.1601 215.135 57.3975C214.908 56.8205 214.641 55.9343 214.558 54.3267C214.496 52.5955 214.476 52.0597 214.476 47.6699C214.476 43.2801 214.496 42.7442 214.558 40.9924C214.641 39.3849 214.908 38.4987 215.135 37.9216C215.424 37.1385 215.795 36.6026 216.372 36.0256C216.949 35.4485 217.485 35.0775 218.268 34.789C218.845 34.5623 219.71 34.2944 221.318 34.2119C223.07 34.1501 223.585 34.1295 227.995 34.1295L228.059 34.1728ZM228.059 39.2262C223.381 39.2262 219.593 43.0183 219.593 47.6926C219.593 52.3709 223.385 56.1589 228.059 56.1589C232.738 56.1589 236.526 52.3668 236.526 47.6926C236.526 43.0142 232.734 39.2262 228.059 39.2262ZM228.059 53.1893C225.024 53.1893 222.563 50.7285 222.563 47.6927C222.563 44.657 225.024 42.1962 228.059 42.1962C231.095 42.1962 233.556 44.657 233.556 47.6927C233.556 50.7285 231.095 53.1893 228.059 53.1893ZM238.838 38.8923C238.838 39.9846 237.952 40.8708 236.86 40.8708C235.767 40.8708 234.881 39.9846 234.881 38.8923C234.881 37.8 235.767 36.9138 236.86 36.9138C237.952 36.9138 238.838 37.8 238.838 38.8923Z" fill="white"/>
<path fill-rule="evenodd" clip-rule="evenodd" d="M228.059 31.2051C223.581 31.2051 223.02 31.2257 221.262 31.304C219.506 31.3864 218.311 31.6626 217.26 32.0707C216.176 32.4911 215.255 33.0558 214.34 33.9729C213.423 34.888 212.856 35.8072 212.437 36.8933C212.029 37.9444 211.751 39.1397 211.671 40.8956C211.588 42.6536 211.572 43.2142 211.572 47.6926C211.572 52.171 211.592 52.7316 211.671 54.4896C211.753 56.2455 212.029 57.4429 212.437 58.492C212.858 59.576 213.423 60.4972 214.34 61.4123C215.255 62.3294 216.174 62.8962 217.26 63.3146C218.311 63.7226 219.506 64.0009 221.262 64.0812C223.02 64.1637 223.581 64.1802 228.059 64.1802C232.538 64.1802 233.098 64.1595 234.856 64.0812C236.612 63.9988 237.81 63.7226 238.859 63.3146C239.943 62.8941 240.864 62.3294 241.779 61.4123C242.696 60.4972 243.263 59.5781 243.681 58.492C244.089 57.4409 244.368 56.2455 244.448 54.4896C244.53 52.7316 244.547 52.171 244.547 47.6926C244.547 43.2142 244.526 42.6536 244.448 40.8956C244.365 39.1397 244.089 37.9423 243.681 36.8933C243.261 35.8092 242.696 34.888 241.779 33.9729C240.864 33.0558 239.945 32.489 238.859 32.0707C237.808 31.6626 236.612 31.3844 234.856 31.304C233.098 31.2216 232.538 31.2051 228.059 31.2051ZM228.059 34.1728C232.462 34.1728 232.985 34.1934 234.722 34.2717C236.33 34.3459 237.202 34.6138 237.783 34.8405C238.554 35.1394 239.102 35.4959 239.679 36.073C240.256 36.65 240.613 37.1982 240.911 37.969C241.138 38.5502 241.406 39.422 241.48 41.0295C241.559 42.769 241.577 43.2904 241.577 47.6926C241.577 52.0947 241.556 52.6182 241.474 54.3556C241.392 55.9631 241.124 56.8349 240.897 57.4161C240.588 58.1869 240.237 58.7351 239.66 59.3121C239.083 59.8892 238.527 60.2458 237.764 60.5446C237.187 60.7713 236.301 61.0392 234.694 61.1134C232.942 61.1917 232.427 61.2103 228.016 61.2103C223.606 61.2103 223.09 61.1897 221.339 61.1072C219.731 61.0248 218.845 60.7569 218.268 60.5302C217.485 60.221 216.949 59.8707 216.372 59.2936C215.795 58.7165 215.424 58.1601 215.135 57.3975C214.908 56.8205 214.641 55.9343 214.558 54.3267C214.496 52.5955 214.476 52.0597 214.476 47.6699C214.476 43.2801 214.496 42.7442 214.558 40.9924C214.641 39.3849 214.908 38.4987 215.135 37.9216C215.424 37.1385 215.795 36.6026 216.372 36.0256C216.949 35.4485 217.485 35.0775 218.268 34.789C218.845 34.5623 219.71 34.2944 221.318 34.2119C223.07 34.1501 223.585 34.1295 227.995 34.1295L228.059 34.1728ZM228.059 39.2262C223.381 39.2262 219.593 43.0183 219.593 47.6926C219.593 52.3709 223.385 56.1589 228.059 56.1589C232.738 56.1589 236.526 52.3668 236.526 47.6926C236.526 43.0142 232.734 39.2262 228.059 39.2262ZM228.059 53.1893C225.024 53.1893 222.563 50.7285 222.563 47.6927C222.563 44.657 225.024 42.1962 228.059 42.1962C231.095 42.1962 233.556 44.657 233.556 47.6927C233.556 50.7285 231.095 53.1893 228.059 53.1893ZM238.838 38.8923C238.838 39.9846 237.952 40.8708 236.86 40.8708C235.767 40.8708 234.881 39.9846 234.881 38.8923C234.881 37.8 235.767 36.9138 236.86 36.9138C237.952 36.9138 238.838 37.8 238.838 38.8923Z" fill="#F50000"/>
<rect x="262.294" y="39.8857" width="121.6" height="15.614" rx="7.80701" fill="#DADADA" fill-opacity="0.6"/>
</g>
<defs>
<filter id="filter0_dd_5812_75419" x="181.304" y="7.42906" width="244.68" height="450.54" filterUnits="userSpaceOnUse" color-interpolation-filters="sRGB">
<feFlood flood-opacity="0" result="BackgroundImageFix"/>
<feColorMatrix in="SourceAlpha" type="matrix" values="0 0 0 0 0 0 0 0 0 0 0 0 0 0 0 0 0 0 127 0" result="hardAlpha"/>
<feMorphology radius="2.77992" operator="erode" in="SourceAlpha" result="effect1_dropShadow_5812_75419"/>
<feOffset dy="5.55984"/>
<feGaussianBlur stdDeviation="5.55984"/>
<feColorMatrix type="matrix" values="0 0 0 0 0.25098 0 0 0 0 0.341176 0 0 0 0 0.427451 0 0 0 0.3 0"/>
<feBlend mode="normal" in2="BackgroundImageFix" result="effect1_dropShadow_5812_75419"/>
<feColorMatrix in="SourceAlpha" type="matrix" values="0 0 0 0 0 0 0 0 0 0 0 0 0 0 0 0 0 0 127 0" result="hardAlpha"/>
<feMorphology radius="2.77992" operator="dilate" in="SourceAlpha" result="effect2_dropShadow_5812_75419"/>
<feOffset/>
<feColorMatrix type="matrix" values="0 0 0 0 0.25098 0 0 0 0 0.341176 0 0 0 0 0.427451 0 0 0 0.04 0"/>
<feBlend mode="normal" in2="effect1_dropShadow_5812_75419" result="effect2_dropShadow_5812_75419"/>
<feBlend mode="normal" in="SourceGraphic" in2="effect2_dropShadow_5812_75419" result="shape"/>
</filter>
<linearGradient id="paint0_linear_5812_75419" x1="192.342" y1="76.543" x2="418.318" y2="76.543" gradientUnits="userSpaceOnUse">
<stop offset="0.029444" stop-color="#00C4CC"/>
<stop offset="0.519444" stop-color="#5A32FA"/>
<stop offset="1" stop-color="#7D2AE8"/>
</linearGradient>
<linearGradient id="paint1_linear_5812_75419" x1="130.608" y1="63.2454" x2="499.809" y2="285.984" gradientUnits="userSpaceOnUse">
<stop offset="0.229431" stop-color="white"/>
<stop offset="0.745436" stop-color="white" stop-opacity="0"/>
</linearGradient>
<linearGradient id="paint2_linear_5812_75419" x1="186.644" y1="373.434" x2="421.645" y2="372.619" gradientUnits="userSpaceOnUse">
<stop stop-color="#00C4CC"/>
<stop offset="0.525" stop-color="#5A32FA"/>
<stop offset="1" stop-color="#7D2AE8"/>
</linearGradient>
<clipPath id="clip0_5812_75419">
<rect x="0.643555" y="0.139648" width="606" height="454" rx="36" fill="white"/>
</clipPath>
</defs>
</svg>
