<svg width="606" height="454" viewBox="0 0 606 454" fill="none" xmlns="http://www.w3.org/2000/svg">
<g filter="url(#filter0_dd_5542_70631)">
<circle cx="303" cy="227" r="103" fill="white"/>
</g>
<g style="mix-blend-mode:multiply">
<path fill-rule="evenodd" clip-rule="evenodd" d="M406.016 227C406.016 283.894 359.895 330.016 303 330.016C246.106 330.016 199.984 283.894 199.984 227C199.984 170.106 246.106 123.984 303 123.984C359.895 123.984 406.016 170.106 406.016 227ZM332.117 193.068C313.377 193.068 298.184 208.26 298.184 227C298.184 245.741 313.377 260.933 332.117 260.933C350.858 260.933 366.05 245.741 366.05 227C366.05 208.26 350.858 193.068 332.117 193.068ZM313.637 227C313.637 216.794 321.911 208.52 332.117 208.52C342.323 208.52 350.597 216.794 350.597 227C350.597 237.207 342.323 245.481 332.117 245.481C321.911 245.481 313.637 237.207 313.637 227ZM273.874 208.523C263.667 208.523 255.394 216.797 255.394 227.003C255.394 237.209 263.667 245.483 273.874 245.483C277.968 245.483 281.73 244.161 284.788 241.918C288.229 239.394 293.064 240.138 295.588 243.578C298.112 247.019 297.368 251.854 293.928 254.378C288.309 258.499 281.365 260.936 273.874 260.936C255.133 260.936 239.941 245.743 239.941 227.003C239.941 208.262 255.133 193.07 273.874 193.07C281.457 193.07 288.48 195.567 294.135 199.781C297.556 202.331 298.263 207.171 295.713 210.593C293.163 214.014 288.323 214.721 284.901 212.171C281.823 209.878 278.018 208.523 273.874 208.523Z" fill="white"/>
<path fill-rule="evenodd" clip-rule="evenodd" d="M406.016 227C406.016 283.894 359.895 330.016 303 330.016C246.106 330.016 199.984 283.894 199.984 227C199.984 170.106 246.106 123.984 303 123.984C359.895 123.984 406.016 170.106 406.016 227ZM332.117 193.068C313.377 193.068 298.184 208.26 298.184 227C298.184 245.741 313.377 260.933 332.117 260.933C350.858 260.933 366.05 245.741 366.05 227C366.05 208.26 350.858 193.068 332.117 193.068ZM313.637 227C313.637 216.794 321.911 208.52 332.117 208.52C342.323 208.52 350.597 216.794 350.597 227C350.597 237.207 342.323 245.481 332.117 245.481C321.911 245.481 313.637 237.207 313.637 227ZM273.874 208.523C263.667 208.523 255.394 216.797 255.394 227.003C255.394 237.209 263.667 245.483 273.874 245.483C277.968 245.483 281.73 244.161 284.788 241.918C288.229 239.394 293.064 240.138 295.588 243.578C298.112 247.019 297.368 251.854 293.928 254.378C288.309 258.499 281.365 260.936 273.874 260.936C255.133 260.936 239.941 245.743 239.941 227.003C239.941 208.262 255.133 193.07 273.874 193.07C281.457 193.07 288.48 195.567 294.135 199.781C297.556 202.331 298.263 207.171 295.713 210.593C293.163 214.014 288.323 214.721 284.901 212.171C281.823 209.878 278.018 208.523 273.874 208.523Z" fill="url(#paint0_linear_5542_70631)" fill-opacity="0.6"/>
</g>
<defs>
<filter id="filter0_dd_5542_70631" x="191.915" y="121.305" width="222.17" height="222.17" filterUnits="userSpaceOnUse" color-interpolation-filters="sRGB">
<feFlood flood-opacity="0" result="BackgroundImageFix"/>
<feColorMatrix in="SourceAlpha" type="matrix" values="0 0 0 0 0 0 0 0 0 0 0 0 0 0 0 0 0 0 127 0" result="hardAlpha"/>
<feMorphology radius="2.695" operator="erode" in="SourceAlpha" result="effect1_dropShadow_5542_70631"/>
<feOffset dy="5.39"/>
<feGaussianBlur stdDeviation="5.39"/>
<feColorMatrix type="matrix" values="0 0 0 0 0.25098 0 0 0 0 0.341176 0 0 0 0 0.427451 0 0 0 0.3 0"/>
<feBlend mode="normal" in2="BackgroundImageFix" result="effect1_dropShadow_5542_70631"/>
<feColorMatrix in="SourceAlpha" type="matrix" values="0 0 0 0 0 0 0 0 0 0 0 0 0 0 0 0 0 0 127 0" result="hardAlpha"/>
<feMorphology radius="2.695" operator="dilate" in="SourceAlpha" result="effect2_dropShadow_5542_70631"/>
<feOffset/>
<feColorMatrix type="matrix" values="0 0 0 0 0.25098 0 0 0 0 0.341176 0 0 0 0 0.427451 0 0 0 0.04 0"/>
<feBlend mode="normal" in2="effect1_dropShadow_5542_70631" result="effect2_dropShadow_5542_70631"/>
<feBlend mode="normal" in="SourceGraphic" in2="effect2_dropShadow_5542_70631" result="shape"/>
</filter>
<linearGradient id="paint0_linear_5542_70631" x1="196.452" y1="219.396" x2="408.371" y2="219.396" gradientUnits="userSpaceOnUse">
<stop stop-color="#00C4CC"/>
<stop offset="0.525" stop-color="#5A32FA"/>
<stop offset="1" stop-color="#7D2AE8"/>
</linearGradient>
</defs>
</svg>
